# xmcd
#
# Track frame offsets: 
#        150
#        21183
#        43677
#        60663
#        80949
#        98937
#        122745
#        141315
#        160701
#        176211
#        191163
#        208693
#        224099
#
# Disc length: 3247 seconds
#
# Revision: 1
# Processed by: cddbd v1.5.2PL0 Copyright (c) Steve Scherf et al.
# Submitted via: ExactAudioCopy v0.95b4
#
DISCID=cc0cad0d
DTITLE=Damas y reinas - Cd-2
DYEAR=1900
DGENRE=Alternative
TTITLE0=Mi tierra - Gloria Estefan
TTITLE1=Lia - Ana Belén
TTITLE2=Dove l´amore - Cher
TTITLE3=No mi canso - Ana Torroja
TTITLE4=Lento - Julieta Venegas
TTITLE5=Un día más sin ti - Lucrecia
TTITLE6=Fuego - Roser
TTITLE7=Sábado por la tarde - Soledad Jiménez
TTITLE8=Echate a mi vera - Buika
TTITLE9=Pa mi genio - Carmen París
TTITLE10=Solo tu - Pastora Soler
TTITLE11=Rio de azúcar - Montse Cortés
TTITLE12=Asi es mi gente - Amparo Sandino
EXTD=
EXTT0=
EXTT1=
EXTT2=
EXTT3=
EXTT4=
EXTT5=
EXTT6=
EXTT7=
EXTT8=
EXTT9=
EXTT10=
EXTT11=
EXTT12=
PLAYORDER=
